<svg width="55" height="23" fill="none" xmlns="http://www.w3.org/2000/svg"><g clip-path="url(#a)"><path d="M-995 23c8.217 0 12.509-4.6 15.978-8.3 3.105-3.3 5.387-5.7 10.226-5.7 4.931 0 7.122 2.4 10.226 5.7 3.47 3.7 7.761 8.3 15.979 8.3 8.217 0 12.508-4.6 15.978-8.3 3.104-3.3 5.387-5.7 10.226-5.7 4.839 0 7.122 2.4 10.226 5.7 3.47 3.7 7.761 8.3 15.978 8.3 8.218 0 12.509-4.6 15.979-8.3 3.104-3.3 5.387-5.7 10.226-5.7 4.93 0 7.121 2.4 10.226 5.7 3.469 3.7 7.761 8.3 15.978 8.3 8.217 0 12.509-4.6 15.978-8.3 3.105-3.3 5.387-5.7 10.226-5.7 4.931 0 7.122 2.4 10.226 5.7 3.835 3.7 8.127 8.3 16.344 8.3s12.509-4.6 15.978-8.3c3.105-3.3 5.387-5.7 10.226-5.7 4.931 0 7.122 2.4 10.226 5.7 3.47 3.7 7.761 8.3 15.979 8.3 8.217 0 12.508-4.6 15.978-8.3 3.104-3.3 5.387-5.7 10.226-5.7 4.93 0 7.122 2.4 10.226 5.7 3.652 3.7 7.944 8.3 16.161 8.3 8.217 0 12.509-4.6 15.978-8.3 3.105-3.3 5.387-5.7 10.226-5.7 4.931 0 7.122 2.4 10.226 5.7 3.47 3.7 7.761 8.3 15.979 8.3 8.217 0 12.508-4.6 15.978-8.3 3.104-3.3 5.387-5.7 10.226-5.7 4.839 0 7.122 2.4 10.226 5.7C-587.6 18.4-583.217 23-575 23c8.217 0 12.509-4.6 15.978-8.3 3.105-3.3 5.387-5.7 10.226-5.7 4.931 0 7.122 2.4 10.226 5.7 3.47 3.7 7.761 8.3 15.979 8.3 8.217 0 12.508-4.6 15.978-8.3 3.104-3.3 5.387-5.7 10.226-5.7 4.93 0 7.122 2.4 10.226 5.7 3.47 3.7 7.761 8.3 15.978 8.3 8.218 0 12.509-4.6 15.979-8.3 3.104-3.3 5.387-5.7 10.226-5.7 4.839 0 7.121 2.4 10.226 5.7 3.469 3.7 7.761 8.3 15.978 8.3 8.217 0 12.509-4.6 15.978-8.3 3.105-3.3 5.387-5.7 10.226-5.7 4.931 0 7.122 2.4 10.227 5.7 3.469 3.7 7.76 8.3 15.978 8.3 8.217 0 12.508-4.6 15.978-8.3C-346.283 11.4-344 9-339.161 9c4.931 0 7.122 2.4 10.226 5.7 3.47 3.7 7.761 8.3 15.978 8.3 8.218 0 12.509-4.6 15.979-8.3 3.104-3.3 5.387-5.7 10.226-5.7 4.93 0 7.122 2.4 10.226 5.7 3.469 3.7 7.761 8.3 15.978 8.3 8.218 0 12.509-4.6 15.978-8.3 3.105-3.3 5.387-5.7 10.227-5.7 4.839 0 7.121 2.4 10.226 5.7 3.469 3.7 7.76 8.3 15.978 8.3 8.217 0 12.509-4.6 15.978-8.3 3.104-3.3 5.387-5.7 10.226-5.7 4.931 0 7.122 2.4 10.226 5.7 3.47 3.7 7.761 8.3 15.979 8.3 8.217 0 12.508-4.6 15.978-8.3 3.104-3.3 5.387-5.7 10.226-5.7 4.93 0 7.122 2.4 10.226 5.7 3.47 3.7 7.761 8.3 15.978 8.3 8.218 0 12.509-4.6 15.978-8.3 3.105-3.3 5.387-5.7 10.227-5.7 4.93 0 7.121 2.4 10.226 5.7C-62.6 18.4-58.217 23-50 23c8.217 0 12.509-4.6 15.978-8.3 3.105-3.3 5.387-5.7 10.226-5.7 4.93 0 7.122 2.4 10.226 5.7C-10.1 18.4-5.809 23 2.41 23c8.217 0 12.508-4.6 15.978-8.3C21.583 11.4 23.865 9 28.704 9c4.93 0 7.122 2.4 10.226 5.7C42.491 18.4 46.783 23 55 23v-9c-4.93 0-7.122-2.4-10.226-5.7-3.47-3.7-7.761-8.3-16.07-8.3-8.217 0-12.508 4.6-15.978 8.3C9.622 11.6 7.34 14 2.5 14c-4.93 0-7.122-2.4-10.226-5.7-3.47-3.7-7.852-8.3-16.07-8.3-8.217 0-12.508 4.6-15.978 8.3C-42.878 11.6-45.16 14-50 14c-4.93 0-7.122-2.4-10.226-5.7-3.47-3.7-7.761-8.3-15.978-8.3-8.218 0-12.509 4.6-15.979 8.3-3.104 3.3-5.387 5.7-10.226 5.7-4.93 0-7.121-2.4-10.226-5.7-3.469-3.7-7.761-8.3-15.978-8.3-8.217 0-12.509 4.6-15.978 8.3-3.105 3.3-5.387 5.7-10.226 5.7-4.931 0-7.122-2.4-10.226-5.7-3.47-3.7-7.761-8.3-15.979-8.3-8.217 0-12.508 4.6-15.978 8.3-3.104 3.3-5.387 5.7-10.226 5.7-4.931 0-7.122-2.4-10.226-5.7-3.47-3.7-7.761-8.3-15.978-8.3-8.218 0-12.509 4.6-15.979 8.3-3.104 3.3-5.387 5.7-10.226 5.7-4.93 0-7.122-2.4-10.226-5.7-3.469-3.7-7.761-8.3-15.978-8.3-8.218 0-12.509 4.6-15.978 8.3-3.105 3.3-5.387 5.7-10.226 5.7-4.84 0-7.122-2.4-10.227-5.7-3.469-3.7-7.76-8.3-15.978-8.3-8.217 0-12.509 4.6-15.978 8.3-3.104 3.3-5.387 5.7-10.226 5.7-4.931 0-7.122-2.4-10.226-5.7-3.47-3.7-7.761-8.3-15.979-8.3-8.217 0-12.508 4.6-15.978 8.3-3.104 3.3-5.387 5.7-10.226 5.7-4.93 0-7.122-2.4-10.226-5.7-3.47-3.7-7.761-8.3-15.978-8.3-8.218 0-12.509 4.6-15.978 8.3-3.105 3.3-5.387 5.7-10.227 5.7-4.93 0-7.121-2.4-10.226-5.7-3.469-3.7-7.761-8.3-15.978-8.3-8.217 0-12.509 4.6-15.978 8.3-3.105 3.3-5.387 5.7-10.226 5.7-4.931 0-7.122-2.4-10.226-5.7-3.47-3.7-7.761-8.3-15.979-8.3-8.217 0-12.508 4.6-15.978 8.3-3.104 3.3-5.387 5.7-10.226 5.7-4.93 0-7.122-2.4-10.226-5.7-3.47-3.7-7.761-8.3-15.978-8.3-8.218 0-12.509 4.6-15.979 8.3-3.104 3.3-5.387 5.7-10.226 5.7-4.93 0-7.121-2.4-10.226-5.7-3.469-3.7-7.761-8.3-15.978-8.3-8.217 0-12.509 4.6-15.978 8.3-3.105 3.3-5.387 5.7-10.226 5.7-4.931 0-7.122-2.4-10.226-5.7-4.566-3.7-8.857-8.3-17.166-8.3-8.217 0-12.508 4.6-15.978 8.3-3.104 3.3-5.387 5.7-10.226 5.7-4.839 0-7.122-2.4-10.226-5.7-3.47-3.7-7.761-8.3-15.978-8.3-8.218 0-12.509 4.6-15.979 8.3-3.104 3.3-5.387 5.7-10.226 5.7-4.839 0-7.121-2.4-10.226-5.7-3.561-3.7-7.852-8.3-16.161-8.3-8.308 0-12.508 4.6-15.978 8.3-3.104 3.3-5.387 5.7-10.226 5.7-4.839 0-7.122-2.4-10.226-5.7-3.47-3.7-7.761-8.3-15.978-8.3-8.218 0-12.509 4.6-15.979 8.3-3.104 3.3-5.387 5.7-10.226 5.7-4.93 0-7.121-2.4-10.226-5.7-3.469-3.7-7.761-8.3-15.978-8.3-8.217 0-12.509 4.6-15.978 8.3-3.105 3.3-5.387 5.7-10.226 5.7-4.84 0-7.122-2.4-10.227-5.7-3.469-3.7-7.76-8.3-15.978-8.3-8.217 0-12.508 4.6-15.978 8.3-3.104 3.3-5.387 5.7-10.226 5.7v9H-995Z" fill="#F1F1F1"/></g><defs><clipPath id="a"><path fill="#fff" transform="matrix(-1 0 0 1 55 0)" d="M0 0h55v23H0z"/></clipPath></defs></svg>