<svg width="55" height="23" viewBox="0 0 55 23" fill="none" xmlns="http://www.w3.org/2000/svg">
<g clip-path="url(#clip0_3_8)">
<path d="M-995 23C-986.783 23 -982.491 18.4 -979.022 14.7C-975.917 11.4 -973.635 9 -968.796 9C-963.865 9 -961.674 11.4 -958.57 14.7C-955.1 18.4 -950.809 23 -942.591 23C-934.374 23 -930.083 18.4 -926.613 14.7C-923.509 11.4 -921.226 9 -916.387 9C-911.548 9 -909.265 11.4 -906.161 14.7C-902.691 18.4 -898.4 23 -890.183 23C-881.965 23 -877.674 18.4 -874.204 14.7C-871.1 11.4 -868.817 9 -863.978 9C-859.048 9 -856.857 11.4 -853.752 14.7C-850.283 18.4 -845.991 23 -837.774 23C-829.557 23 -825.265 18.4 -821.796 14.7C-818.691 11.4 -816.409 9 -811.57 9C-806.639 9 -804.448 11.4 -801.344 14.7C-797.509 18.4 -793.217 23 -785 23C-776.783 23 -772.491 18.4 -769.022 14.7C-765.917 11.4 -763.635 9 -758.796 9C-753.865 9 -751.674 11.4 -748.57 14.7C-745.1 18.4 -740.809 23 -732.591 23C-724.374 23 -720.083 18.4 -716.613 14.7C-713.509 11.4 -711.226 9 -706.387 9C-701.457 9 -699.265 11.4 -696.161 14.7C-692.509 18.4 -688.217 23 -680 23C-671.783 23 -667.491 18.4 -664.022 14.7C-660.917 11.4 -658.635 9 -653.796 9C-648.865 9 -646.674 11.4 -643.57 14.7C-640.1 18.4 -635.809 23 -627.591 23C-619.374 23 -615.083 18.4 -611.613 14.7C-608.509 11.4 -606.226 9 -601.387 9C-596.548 9 -594.265 11.4 -591.161 14.7C-587.6 18.4 -583.217 23 -575 23C-566.783 23 -562.491 18.4 -559.022 14.7C-555.917 11.4 -553.635 9 -548.796 9C-543.865 9 -541.674 11.4 -538.57 14.7C-535.1 18.4 -530.809 23 -522.591 23C-514.374 23 -510.083 18.4 -506.613 14.7C-503.509 11.4 -501.226 9 -496.387 9C-491.457 9 -489.265 11.4 -486.161 14.7C-482.691 18.4 -478.4 23 -470.183 23C-461.965 23 -457.674 18.4 -454.204 14.7C-451.1 11.4 -448.817 9 -443.978 9C-439.139 9 -436.857 11.4 -433.752 14.7C-430.283 18.4 -425.991 23 -417.774 23C-409.557 23 -405.265 18.4 -401.796 14.7C-398.691 11.4 -396.409 9 -391.57 9C-386.639 9 -384.448 11.4 -381.343 14.7C-377.874 18.4 -373.583 23 -365.365 23C-357.148 23 -352.857 18.4 -349.387 14.7C-346.283 11.4 -344 9 -339.161 9C-334.23 9 -332.039 11.4 -328.935 14.7C-325.465 18.4 -321.174 23 -312.957 23C-304.739 23 -300.448 18.4 -296.978 14.7C-293.874 11.4 -291.591 9 -286.752 9C-281.822 9 -279.63 11.4 -276.526 14.7C-273.057 18.4 -268.765 23 -260.548 23C-252.33 23 -248.039 18.4 -244.57 14.7C-241.465 11.4 -239.183 9 -234.343 9C-229.504 9 -227.222 11.4 -224.117 14.7C-220.648 18.4 -216.357 23 -208.139 23C-199.922 23 -195.63 18.4 -192.161 14.7C-189.057 11.4 -186.774 9 -181.935 9C-177.004 9 -174.813 11.4 -171.709 14.7C-168.239 18.4 -163.948 23 -155.73 23C-147.513 23 -143.222 18.4 -139.752 14.7C-136.648 11.4 -134.365 9 -129.526 9C-124.596 9 -122.404 11.4 -119.3 14.7C-115.83 18.4 -111.539 23 -103.322 23C-95.1043 23 -90.813 18.4 -87.3435 14.7C-84.2391 11.4 -81.9565 9 -77.1174 9C-72.187 9 -69.9957 11.4 -66.8913 14.7C-62.6 18.4 -58.2174 23 -50 23C-41.7826 23 -37.4913 18.4 -34.0217 14.7C-30.9174 11.4 -28.6348 9 -23.7957 9C-18.8652 9 -16.6739 11.4 -13.5696 14.7C-10.1 18.4 -5.8087 23 2.4087 23C10.6261 23 14.9174 18.4 18.387 14.7C21.5826 11.4 23.8652 9 28.7043 9C33.6348 9 35.8261 11.4 38.9304 14.7C42.4913 18.4 46.7826 23 55 23V14C50.0696 14 47.8783 11.6 44.7739 8.3C41.3043 4.6 37.013 0 28.7043 0C20.487 0 16.1957 4.6 12.7261 8.3C9.62174 11.6 7.33913 14 2.5 14C-2.43044 14 -4.62174 11.6 -7.72609 8.3C-11.1957 4.6 -15.5783 0 -23.7957 0C-32.013 0 -36.3044 4.6 -39.7739 8.3C-42.8783 11.6 -45.1609 14 -50 14C-54.9304 14 -57.1217 11.6 -60.2261 8.3C-63.6957 4.6 -67.987 0 -76.2043 0C-84.4217 0 -88.713 4.6 -92.1826 8.3C-95.287 11.6 -97.5696 14 -102.409 14C-107.339 14 -109.53 11.6 -112.635 8.3C-116.104 4.6 -120.396 0 -128.613 0C-136.83 0 -141.122 4.6 -144.591 8.3C-147.696 11.6 -149.978 14 -154.817 14C-159.748 14 -161.939 11.6 -165.043 8.3C-168.513 4.6 -172.804 0 -181.022 0C-189.239 0 -193.53 4.6 -197 8.3C-200.104 11.6 -202.387 14 -207.226 14C-212.157 14 -214.348 11.6 -217.452 8.3C-220.922 4.6 -225.213 0 -233.43 0C-241.648 0 -245.939 4.6 -249.409 8.3C-252.513 11.6 -254.796 14 -259.635 14C-264.565 14 -266.757 11.6 -269.861 8.3C-273.33 4.6 -277.622 0 -285.839 0C-294.057 0 -298.348 4.6 -301.817 8.3C-304.922 11.6 -307.204 14 -312.043 14C-316.883 14 -319.165 11.6 -322.27 8.3C-325.739 4.6 -330.03 0 -338.248 0C-346.465 0 -350.757 4.6 -354.226 8.3C-357.33 11.6 -359.613 14 -364.452 14C-369.383 14 -371.574 11.6 -374.678 8.3C-378.148 4.6 -382.439 0 -390.657 0C-398.874 0 -403.165 4.6 -406.635 8.3C-409.739 11.6 -412.022 14 -416.861 14C-421.791 14 -423.983 11.6 -427.087 8.3C-430.557 4.6 -434.848 0 -443.065 0C-451.283 0 -455.574 4.6 -459.043 8.3C-462.148 11.6 -464.43 14 -469.27 14C-474.2 14 -476.391 11.6 -479.496 8.3C-482.965 4.6 -487.257 0 -495.474 0C-503.691 0 -507.983 4.6 -511.452 8.3C-514.557 11.6 -516.839 14 -521.678 14C-526.609 14 -528.8 11.6 -531.904 8.3C-535.374 4.6 -539.665 0 -547.883 0C-556.1 0 -560.391 4.6 -563.861 8.3C-566.965 11.6 -569.248 14 -574.087 14C-579.017 14 -581.209 11.6 -584.313 8.3C-587.783 4.6 -592.074 0 -600.291 0C-608.509 0 -612.8 4.6 -616.27 8.3C-619.374 11.6 -621.657 14 -626.496 14C-631.426 14 -633.617 11.6 -636.722 8.3C-640.191 4.6 -644.483 0 -652.7 0C-660.917 0 -665.209 4.6 -668.678 8.3C-671.783 11.6 -674.065 14 -678.904 14C-683.835 14 -686.026 11.6 -689.13 8.3C-693.696 4.6 -697.987 0 -706.296 0C-714.513 0 -718.804 4.6 -722.274 8.3C-725.378 11.6 -727.661 14 -732.5 14C-737.339 14 -739.622 11.6 -742.726 8.3C-746.196 4.6 -750.487 0 -758.704 0C-766.922 0 -771.213 4.6 -774.683 8.3C-777.787 11.6 -780.07 14 -784.909 14C-789.748 14 -792.03 11.6 -795.135 8.3C-798.696 4.6 -802.987 0 -811.296 0C-819.604 0 -823.804 4.6 -827.274 8.3C-830.378 11.6 -832.661 14 -837.5 14C-842.339 14 -844.622 11.6 -847.726 8.3C-851.196 4.6 -855.487 0 -863.704 0C-871.922 0 -876.213 4.6 -879.683 8.3C-882.787 11.6 -885.07 14 -889.909 14C-894.839 14 -897.03 11.6 -900.135 8.3C-903.604 4.6 -907.896 0 -916.113 0C-924.33 0 -928.622 4.6 -932.091 8.3C-935.196 11.6 -937.478 14 -942.317 14C-947.157 14 -949.439 11.6 -952.544 8.3C-956.013 4.6 -960.304 0 -968.522 0C-976.739 0 -981.03 4.6 -984.5 8.3C-987.604 11.6 -989.887 14 -994.726 14V23H-995Z" fill="#F1F1F1"/>
</g>
<defs>
<clipPath id="clip0_3_8">
<rect width="55" height="23" fill="white" transform="matrix(-1 0 0 1 55 0)"/>
</clipPath>
</defs>
</svg>
